<svg id="Capa_1" enable-background="new 0 0 512 512" height="512" viewBox="0 0 512 512" width="512" xmlns="http://www.w3.org/2000/svg"><g><g><path d="m256 256.613v247.887l-215.035-124.558v-247.887z" fill="#fca62f"/><path d="m222.176 237.021v247.887l33.824 19.592v-247.887z" fill="#f98824"/><g><g fill="#fcc16d"><path d="m184.318 215.09v82.62l-71.67-41.51v-82.62z"/><path d="m112.648 256.2v82.62l-71.683-41.522v-82.62z"/><path d="m184.318 380.33v82.65l-71.67-41.52v-82.64z"/><path d="m255.998 339.23.002 82.65-71.682-41.55v-82.62z"/></g><path d="m222.176 402.274 33.824 19.606-.002-82.65-33.822-19.591z" fill="#fca62f"/></g><path d="m256 256.613 215.035-124.556v247.888l-215.035 124.555z" fill="#e2267f"/><path d="m471.038 132.06v247.88l-32.62 18.89v-247.87z" fill="#c11f6c"/><g><g fill="#fb4297"><path d="m399.353 421.47v-82.62l-71.67 41.51v82.62z"/><path d="m327.683 380.36v-82.62l-71.685 41.49.002 82.65z"/><path d="m399.353 256.23v-82.65l-71.67 41.52v82.64z"/><path d="m471.035 297.328v-82.651l-71.682 41.553v82.62z"/></g><path d="m471.038 214.68v82.65l-32.62 18.89v-82.63z" fill="#e2267f"/></g><path d="m40.965 132.055 215.035-124.555 215.035 124.557-215.035 124.556z" fill="#fc7cb6"/><path d="m471.038 132.06-32.62 18.9h-.01l-215.03-124.56 32.62-18.9z" fill="#fb5fa7"/><g><g><path d="m256 90.537 71.678-41.518 71.679 41.519-71.679 41.518z" fill="#fca5cd"/><path d="m399.358 90.54-32.63 18.9-71.68-41.52 32.63-18.9z" fill="#fc7cb6"/><path d="m256 173.575 71.678-41.519 71.679 41.519-71.679 41.519z" fill="#fca5cd"/></g><g fill="#fca5cd"><path d="m112.643 90.537 71.678-41.518 71.679 41.519-71.679 41.518z"/><path d="m112.643 173.575 71.678-41.519 71.679 41.519-71.679 41.519z"/></g></g></g><path d="m478.528 132.021c-.015-2.573-1.347-5.071-3.734-6.454l-71.52-41.428c-.002-.001-.005-.003-.007-.004l-21.249-12.308c-3.583-2.076-8.172-.854-10.249 2.73-2.076 3.584-.854 8.173 2.73 10.249l9.894 5.731-56.715 32.851-56.715-32.852 56.715-32.851 15.205 8.807c3.585 2.077 8.173.854 10.249-2.73s.854-8.173-2.73-10.249l-90.643-52.503c-2.325-1.347-5.193-1.347-7.519 0l-215.035 124.555c-2.387 1.383-3.719 3.881-3.734 6.454 0 .012-.007.025-.007.036v193.028c0 4.142 3.358 7.5 7.5 7.5s7.5-3.358 7.5-7.5v-14.774l56.684 32.833v65.31l-56.684-32.834v-14.247c0-4.142-3.358-7.5-7.5-7.5s-7.5 3.358-7.5 7.5v18.57c0 2.676 1.425 5.149 3.741 6.49l215.036 124.559h.002c.004.002.008.006.012.008 1.16.668 2.453 1.002 3.746 1.002 1.298 0 2.597-.337 3.759-1.01l215.035-124.555c2.315-1.341 3.741-3.814 3.741-6.49v-247.888c-.001-.011-.008-.024-.008-.036zm-143.35 235.33v-65.314l56.679-32.83v65.315zm56.679-15.494v65.283l-56.679 32.83v-65.284zm-279.215-252.653 56.715 32.852-56.714 32.851-56.715-32.852zm71.68-41.518 56.715 32.852-56.716 32.852-56.715-32.852zm279.213 87.383v65.285l-56.678 32.83v-65.285zm-71.678 106.804-56.679 32.83v-65.285l56.679-32.83zm-271.709-65.284 56.67 32.826v65.285l-56.67-32.822zm71.67 124.132 56.682 32.832v65.31l-56.682-32.855zm64.182-6.137c-4.142 0-7.5 3.358-7.5 7.5v14.135l-56.682-32.832v-65.284l56.682 32.832v14.859c0 4.142 3.358 7.5 7.5 7.5s7.5-3.358 7.5-7.5v-14.858l56.678-32.83v65.285l-56.678 32.83v-14.137c0-4.142-3.358-7.5-7.5-7.5zm71.678-98.157-56.715-32.852 56.715-32.852 56.715 32.852zm-14.963 8.667-56.715 32.851-56.715-32.852 56.715-32.85zm-128.393-8.668-56.716-32.852 56.714-32.851 56.716 32.852zm-135.857-61.359 56.684 32.834v65.288l-56.684-32.833zm71.683 124.144 56.67 32.822v65.286l-56.67-32.822zm71.67 124.135 56.682 32.855v65.287l-56.682-32.833zm71.682-49.79 56.678-32.83v65.314l-56.678 32.828zm143.357-83.037 56.678-32.83v65.316l-56.678 32.829zm-7.501-161.314 56.716 32.852-56.715 32.851-56.716-32.852zm-86.641 32.851-56.715 32.852-56.716-32.852 56.716-32.851zm-56.715-115.889 56.715 32.852-56.715 32.851-56.715-32.852zm-207.535 211.523 56.684 32.834v65.285l-56.684-32.833zm71.683 124.141 56.67 32.822v65.314l-56.67-32.826zm143.352 74.372 56.678-32.829v65.284l-56.678 32.83zm143.357-17.752v-65.283l56.678-32.829v65.282z"/></g></svg>